<mxfile host="app.diagrams.net" modified="2023-11-24T23:12:49.232Z" agent="Mozilla/5.0 (Windows NT 10.0; Win64; x64) AppleWebKit/537.36 (KHTML, like Gecko) Chrome/119.0.0.0 Safari/537.36" etag="ogLU5g4kGhNwITYHf3U6" version="22.1.4" type="device">
  <diagram name="Página-1" id="YsGdG1AM4rVObODEC8tR">
    <mxGraphModel dx="1032" dy="539" grid="1" gridSize="10" guides="1" tooltips="1" connect="1" arrows="1" fold="1" page="1" pageScale="1" pageWidth="827" pageHeight="1169" math="0" shadow="0">
      <root>
        <mxCell id="0" />
        <mxCell id="1" parent="0" />
        <mxCell id="tKnN3sahUIZj_fmYFDAc-33" value="" style="edgeStyle=orthogonalEdgeStyle;rounded=0;orthogonalLoop=1;jettySize=auto;html=1;" edge="1" parent="1" source="tKnN3sahUIZj_fmYFDAc-35">
          <mxGeometry relative="1" as="geometry">
            <mxPoint x="399" y="90" as="targetPoint" />
          </mxGeometry>
        </mxCell>
        <mxCell id="tKnN3sahUIZj_fmYFDAc-34" value="pagamentos" style="edgeLabel;html=1;align=center;verticalAlign=middle;resizable=0;points=[];" vertex="1" connectable="0" parent="tKnN3sahUIZj_fmYFDAc-33">
          <mxGeometry x="-0.3394" y="2" relative="1" as="geometry">
            <mxPoint x="-2" y="3" as="offset" />
          </mxGeometry>
        </mxCell>
        <mxCell id="tKnN3sahUIZj_fmYFDAc-35" value="" style="ellipse;fillColor=strokeColor;html=1;" vertex="1" parent="1">
          <mxGeometry x="384" y="10" width="30" height="30" as="geometry" />
        </mxCell>
        <mxCell id="tKnN3sahUIZj_fmYFDAc-37" value="" style="edgeStyle=orthogonalEdgeStyle;rounded=0;orthogonalLoop=1;jettySize=auto;html=1;" edge="1" parent="1" source="tKnN3sahUIZj_fmYFDAc-38" target="tKnN3sahUIZj_fmYFDAc-40">
          <mxGeometry relative="1" as="geometry" />
        </mxCell>
        <mxCell id="tKnN3sahUIZj_fmYFDAc-38" value="Abre o menu " style="rhombus;" vertex="1" parent="1">
          <mxGeometry x="336" y="90" width="126" height="80" as="geometry" />
        </mxCell>
        <mxCell id="tKnN3sahUIZj_fmYFDAc-40" value="Visualizar" style="html=1;align=center;verticalAlign=top;rounded=1;absoluteArcSize=1;arcSize=10;dashed=0;whiteSpace=wrap;" vertex="1" parent="1">
          <mxGeometry x="329" y="210" width="140" height="40" as="geometry" />
        </mxCell>
        <mxCell id="tKnN3sahUIZj_fmYFDAc-47" value="" style="edgeStyle=orthogonalEdgeStyle;rounded=0;orthogonalLoop=1;jettySize=auto;html=1;" edge="1" parent="1" target="tKnN3sahUIZj_fmYFDAc-48">
          <mxGeometry relative="1" as="geometry">
            <mxPoint x="399" y="340" as="targetPoint" />
            <mxPoint x="399" y="250" as="sourcePoint" />
          </mxGeometry>
        </mxCell>
        <mxCell id="tKnN3sahUIZj_fmYFDAc-48" value="" style="ellipse;html=1;shape=endState;fillColor=strokeColor;" vertex="1" parent="1">
          <mxGeometry x="384" y="310" width="30" height="30" as="geometry" />
        </mxCell>
      </root>
    </mxGraphModel>
  </diagram>
</mxfile>
